<svg width="19" height="22" viewBox="0 0 19 22" fill="none" xmlns="http://www.w3.org/2000/svg">
    <g clip-path="url(#clip0_32_489)">
        <path d="M2.04688 17.3623H17.5254C17.9876 17.3623 18.349 17.2549 18.6094 17.04C18.8698 16.8252 19 16.5387 19 16.1806C19 15.8551 18.9056 15.5394 18.7168 15.2334C18.528 14.9274 18.292 14.6279 18.0088 14.3349C17.7256 14.042 17.444 13.749 17.1641 13.456C16.9492 13.2347 16.7816 12.945 16.6612 12.5869C16.5407 12.2288 16.4512 11.848 16.3926 11.4443C16.334 11.0406 16.2917 10.65 16.2657 10.2724C16.2591 9.95343 16.2477 9.64256 16.2315 9.33982C16.2152 9.03709 16.1908 8.7425 16.1582 8.45604C15.9108 8.5537 15.6569 8.62856 15.3965 8.68064C15.1361 8.73273 14.8659 8.75877 14.586 8.75877C13.72 8.75877 12.9306 8.54556 12.2178 8.11912C11.5049 7.69269 10.9352 7.1214 10.5088 6.40525C10.0824 5.68911 9.86915 4.90135 9.86915 4.04198C9.86915 3.46255 9.97006 2.91242 10.1719 2.39159C10.3737 1.87075 10.6471 1.40526 10.9922 0.995102C10.6276 0.81281 10.224 0.721664 9.78125 0.721664C9.06511 0.721664 8.46289 0.943019 7.97461 1.38573C7.48633 1.82843 7.15104 2.3688 6.96875 3.00682C6.10287 3.31932 5.40463 3.80761 4.87403 4.47167C4.34343 5.13573 3.95443 5.95604 3.70704 6.93261C3.45964 7.90917 3.32617 9.02244 3.30665 10.2724C3.2806 10.65 3.23828 11.0406 3.17969 11.4443C3.12109 11.848 3.03158 12.2288 2.91114 12.5869C2.79069 12.945 2.62305 13.2347 2.40821 13.456C2.12826 13.749 1.84668 14.042 1.56348 14.3349C1.28027 14.6279 1.04427 14.9274 0.855469 15.2334C0.666667 15.5394 0.572266 15.8551 0.572266 16.1806C0.572266 16.5387 0.702474 16.8252 0.962891 17.04C1.22331 17.2549 1.58464 17.3623 2.04688 17.3623ZM9.78125 21.2783C10.3347 21.2783 10.8295 21.1579 11.2657 20.917C11.7019 20.6761 12.0518 20.3603 12.3155 19.9697C12.5791 19.5791 12.7337 19.1559 12.7793 18.7002H6.79297C6.83203 19.1559 6.98503 19.5791 7.25196 19.9697C7.51888 20.3603 7.87045 20.6761 8.30665 20.917C8.74284 21.1579 9.23437 21.2783 9.78125 21.2783Z" fill="#DFDFDF"/>
        <path d="M14.5957 7.43064C15.2077 7.43064 15.7709 7.27765 16.2852 6.97166C16.7995 6.66568 17.2097 6.25552 17.5157 5.7412C17.8216 5.22688 17.9746 4.66047 17.9746 4.04198C17.9746 3.42349 17.8216 2.85708 17.5157 2.34276C17.2097 1.82843 16.7995 1.41828 16.2852 1.11229C15.7709 0.8063 15.2077 0.653305 14.5957 0.653305C13.9707 0.653305 13.4027 0.8063 12.8916 1.11229C12.3805 1.41828 11.972 1.82843 11.6661 2.34276C11.3601 2.85708 11.2071 3.42349 11.2071 4.04198C11.2071 4.66047 11.3601 5.22688 11.6661 5.7412C11.972 6.25552 12.3805 6.66568 12.8916 6.97166C13.4027 7.27765 13.9707 7.43064 14.5957 7.43064Z" fill="#FF3B30"/>
    </g>
    <defs>
        <clipPath id="clip0_32_489">
            <rect width="18.4277" height="20.6934" fill="white" transform="translate(0.572266 0.653305)"/>
        </clipPath>
    </defs>
</svg>
