<svg xmlns="http://www.w3.org/2000/svg" width="36" height="18" viewBox="0 0 36 18" fill="none">
    <g clip-path="url(#clip0_544_708)">
        <path d="M31.638 2.52733H19.6575V0.416672H34.9547V5.08021H23.0144V5.80387H35.1356V7.91452H19.6977V3.25098H31.638V2.52733ZM29.0047 11.0906V11.8946H34.9949V17.5833H19.6374V11.8946H25.6276V11.0906H18.6323V8.61807H36V11.0906H29.0047ZM31.6581 14.2666H22.9742V15.2114H31.6581V14.2666Z" fill="#DFDFDF"/>
        <path d="M16.1013 17.5833H12.7041V0.416672H16.1013V17.5833ZM5.40729 0.617687C7.08242 0.617687 8.39571 1.30114 9.34718 2.66804C10.3121 4.02154 10.7945 6.06519 10.7945 8.79898C10.7945 11.5328 10.3121 13.5831 9.34718 14.95C8.39571 16.3035 7.08242 16.9803 5.40729 16.9803C3.73217 16.9803 2.41218 16.3035 1.44731 14.95C0.482435 13.5831 0 11.5328 0 8.79898C0 6.06519 0.482435 4.02154 1.44731 2.66804C2.41218 1.30114 3.73217 0.617687 5.40729 0.617687ZM5.40729 3.73341C4.04039 3.73341 3.35695 5.42194 3.35695 8.79898C3.35695 12.176 4.04039 13.8646 5.40729 13.8646C6.76079 13.8646 7.43754 12.176 7.43754 8.79898C7.43754 7.00325 7.24993 5.71006 6.8747 4.9194C6.51288 4.12874 6.02374 3.73341 5.40729 3.73341Z" fill="#DFDFDF"/>
    </g>
    <defs>
        <clipPath id="clip0_544_708">
            <rect width="36" height="18" fill="white"/>
        </clipPath>
    </defs>
</svg>
